<?xml version="1.0" encoding="utf-8"?>
<!-- Generator: Adobe Illustrator 26.0.0, SVG Export Plug-In . SVG Version: 6.00 Build 0)  -->
<svg version="1.1" id="Capa_1" xmlns="http://www.w3.org/2000/svg" xmlns:xlink="http://www.w3.org/1999/xlink" x="0px" y="0px"
	 viewBox="0 0 3000 2000" style="enable-background:new 0 0 3000 2000;" xml:space="preserve">
<style type="text/css">
	.st0{opacity:0.6;fill:#EDF2FF;enable-background:new    ;}
	.st1{fill:#FFFFFF;}
	.st2{fill:#102048;}
	.st3{fill:#708CD5;}
	.st4{fill:#C6EAE9;}
	.st5{fill:#F9B384;}
	.st6{fill:#E28B6D;}
	.st7{opacity:0.4;fill:#FC8879;enable-background:new    ;}
	.st8{fill:#EE6F57;}
	.st9{fill:#6F3428;}
	.st10{fill:#1F3C88;}
	.st11{fill:#D3DFFF;}
	.st12{opacity:0.6;fill:#708CD5;enable-background:new    ;}
	.st13{opacity:0.3;fill:#708CD5;enable-background:new    ;}
	.st14{fill:#EDF2FF;}
	.st15{fill:#F5C7BE;}
	.st16{opacity:0.2;fill:#6F3428;enable-background:new    ;}
	.st17{opacity:0.15;fill:#6F3428;enable-background:new    ;}
</style>
<g id="OBJECTS">
	<g>
		<g>
			<path class="st0" d="M2689.5,1484.4H1860c0,0-400.8-9.3-423.5,54.3H320.3c-211-408.6,239-600.5,238.4-716.2c0-0.8,0-1.6,0-2.4
				c0-282.8,255.3-512,570.2-512c33,0,65.4,2.5,96.8,7.4c97.5,15,196.6-9.3,276.3-69.7c74.7-56.6,165.2-89.8,262.7-89.8
				c182.5,0,340.4,116.1,416.2,285.1c50.7,113,150,193.8,267.6,217.1c199,39.4,360.8,176.3,410.4,373.3
				C2898.5,1188.5,2815.2,1407.7,2689.5,1484.4z"/>
			<path class="st0" d="M1251.2,255c-9.4-18.4,10.8-35.2,28.6-44.3c19.2-9.8,103.8-12.3,113.3,13.3c8.1,21.7-9.6,48.4-39.7,59.6
				c-28.7,10.7-72.3,1.5-94.7-19C1255.3,261.4,1252.8,258.2,1251.2,255z"/>
			<path class="st0" d="M184.5,865.5c-20.7-42.2,17.5-77.4,51.6-95.7c36.9-19.8,203.7-15.9,225.4,42.2
				c18.4,49.4-13.7,107-71.7,128.6c-55.5,20.7-142.6-4.8-189.1-52.9C193.3,880.2,188,872.8,184.5,865.5z"/>
			<path class="st0" d="M1592.1,1718.8c-36.9-75.3,30.8-138.1,91.5-170.6c65.5-35.2,362.1-27.7,400.8,76
				c32.9,88.2-24,190.9-127.1,229.4c-98.6,36.8-253.7-8.9-336.4-95.1C1607.8,1745.1,1598.4,1731.8,1592.1,1718.8z"/>
		</g>
		<g>
			<g>
				<g>
					<path class="st1" d="M1054,398l-31-53.5c11.5-18,18.1-39.2,18.1-62.1c0-63.9-51.8-115.6-115.6-115.6s-115.6,51.8-115.6,115.6
						S861.7,398,925.5,398c27.2,0,52.2-9.4,71.9-25.1L1054,398z"/>
					<path class="st2" d="M1058.8,402.3l-61.1-27.1C976.9,391.4,952,400,925.5,400c-64.9,0-117.6-52.8-117.6-117.6
						s52.8-117.6,117.6-117.6s117.6,52.8,117.6,117.6c0,22-6.2,43.5-17.8,62.2L1058.8,402.3z M925.5,168.8
						c-62.7,0-113.6,51-113.6,113.6S862.9,396,925.5,396c25.9,0,50.4-8.5,70.7-24.7l1-0.8l52,23.1l-28.5-49.2l0.7-1
						c11.7-18.2,17.8-39.4,17.8-61C1039.2,219.7,988.2,168.8,925.5,168.8z"/>
				</g>
				<g>
					<circle class="st3" cx="865.4" cy="286.3" r="15"/>
					<circle class="st3" cx="925.4" cy="286.3" r="15"/>
					<circle class="st3" cx="985.4" cy="286.3" r="15"/>
				</g>
			</g>
			<g>
				<rect x="760.6" y="517.9" class="st1" width="931.4" height="554.3"/>
				<rect x="760.6" y="515.9" class="st4" width="931.4" height="118.2"/>
				<path class="st2" d="M1693.9,1074.1H758.7V515.9h935.2V1074.1z M762.6,1070.3h927.5V519.8H762.6V1070.3z"/>
				<path class="st2" d="M833.9,604.2c-16.1,0-29.2-13.1-29.2-29.2c0-16.1,13.1-29.2,29.2-29.2c16.1,0,29.2,13.1,29.2,29.2
					C863.1,591.1,850,604.2,833.9,604.2z M833.9,549.8c-13.9,0-25.2,11.3-25.2,25.2s11.3,25.2,25.2,25.2s25.2-11.3,25.2-25.2
					S847.8,549.8,833.9,549.8z"/>
			</g>
			<g>
				<g>
					
						<ellipse transform="matrix(0.7071 -0.7071 0.7071 0.7071 185.1929 1340.4454)" class="st1" cx="1710.7" cy="446.7" rx="142.7" ry="142.7"/>
					<path class="st2" d="M1710.7,591.3c-79.8,0-144.7-64.9-144.7-144.7S1630.9,302,1710.7,302s144.7,64.9,144.7,144.7
						S1790.4,591.3,1710.7,591.3z M1710.7,306c-77.6,0-140.7,63.1-140.7,140.7c0,77.6,63.1,140.7,140.7,140.7
						c77.6,0,140.7-63.1,140.7-140.7C1851.3,369.1,1788.2,306,1710.7,306z"/>
				</g>
				<polygon class="st2" points="1709.8,449.5 1651.2,387.4 1654.1,384.6 1710.7,444.7 1764.7,419.7 1766.3,423.3 				"/>
				<rect x="1708" y="548" class="st2" width="8" height="22"/>
				<rect x="1708" y="328.7" class="st2" width="8" height="22"/>
				<rect x="1809" y="442.7" class="st2" width="22" height="8"/>
				<rect x="1590.3" y="442.7" class="st2" width="22" height="8"/>
			</g>
			<g>
				<path class="st2" d="M1388,610.3l-91.3-7.3l-93.4-5.3l-59-5.8l-0.3-35.4c0,0-11.6,19.2-19.9,33.4l-29.4-2.9
					c-23.4-32-12.7-54,11.3-66.7c24.6-13-14-60,24-80c0,0,30.9-11.4,39.3-28.6c14-28.7,39.4-89.4,114-54c2.2,1,10.3-1.5,12.8-1.6
					c10.1-0.5,20.3,0.5,30.1,3.5c12.7,3.9,24.2,11.1,32.8,21.2c15.3,17.8,14.2,43.3,30.5,60.4c7.8,8.1,16.6,17,21.8,27
					c7.6,14.7,0,30.1-2.5,45c-3.3,19.2,8.8,33.8,10.4,52.4C1421.2,587.5,1407.8,602.5,1388,610.3z"/>
				<path class="st5" d="M1178.5,660.9c12.5-35,19.3-81.1,14.5-140l110.5,39c0.2,1.6,0.5,3.1,0.7,4.7c3.4,21,8.8,43.7,16,64.2
					c5.2,14.6,11.2,28.1,18.2,39.1L1178.5,660.9z"/>
				<path class="st6" d="M1320.3,628.9c-35.2-14.3-65-37-89.3-68.4l73.2,4.2C1307.6,585.6,1313,608.3,1320.3,628.9z"/>
				<path class="st5" d="M1343,503.8c2.8,12.8,3.9,26.1,0,37.5c-13.3,39-35.6,54.7-71.3,44c-15.5-4.6-35.8-13.8-47.6-24.9
					c-14.8-14-28.6-34.4-42.1-57.5l10.7-86.7l98-27.3l62,22.7l3.3,33.3l-18.7,41.3C1339.8,491.9,1341.6,497.9,1343,503.8z"/>
				<path class="st2" d="M1354.5,470.9c-7-33.5-58.3-58.9-90-51.5c-18,52-56.5,73.5-92.5,56.2l0.7-30.7l15.3-42.7l57.3-22.7l64-4.7
					l40,22l16.7,30.7L1354.5,470.9z"/>
				<g>
					<path class="st2" d="M1303.2,490.8c0.2,3.8,1,7.6,2.4,11.1c1.5,3.7,3.8,6.7,6.1,9.9c1.9,2.6,4.1,6.1,1.9,9.1
						c-1.8,2.4-5.2,3.4-8,4.1c-2.5,0.6-1.4,4.5,1.1,3.9c6.3-1.5,13.3-5.5,11.5-13.1c-1-4.3-4.4-7.4-6.7-11c-2.7-4.2-4.1-9-4.4-14
						C1307.1,488.3,1303.1,488.3,1303.2,490.8L1303.2,490.8z"/>
					<ellipse class="st2" cx="1278.9" cy="489.9" rx="6.5" ry="9.8"/>
					<path class="st2" d="M1331.1,491.9c-0.4,5-3.5,8.8-6.8,8.5c-3.3-0.3-5.6-4.6-5.2-9.5c0.4-5,3.5-8.8,6.8-8.5
						C1329.2,482.6,1331.5,486.9,1331.1,491.9z"/>
					<path class="st2" d="M1306.9,547.6c-2,0-4.1-0.2-6.3-0.7c-8.2-1.8-14.9-6.6-18.2-12.8c-0.5-1-0.1-2.2,0.8-2.7s2.2-0.1,2.7,0.8
						c2.7,5.2,8.5,9.2,15.5,10.7c5.3,1.2,10.3,0.7,13-1.4c0.9-0.7,2.1-0.5,2.8,0.4s0.5,2.1-0.4,2.8
						C1314.5,546.7,1310.9,547.6,1306.9,547.6z"/>
					<path class="st2" d="M1288.7,466.2c0.6,2.4-7,4-16,5c-9,1-16.3,2.1-16.7-1.3c-0.4-3.4,7-4,16-5S1287.9,462.6,1288.7,466.2z"/>
					<path class="st2" d="M1307.9,465c-0.5,2.4,6.3,4.1,14.3,5.2c8.1,1.1,14.6,2.3,14.9-1.1s-6.3-4.1-14.3-5.2
						C1314.7,462.8,1308.6,461.4,1307.9,465z"/>
					<ellipse class="st7" cx="1253.1" cy="518.1" rx="19.6" ry="19.6"/>
					<path class="st7" d="M1343,541.3c-8.1-2.4-14-9.9-14-18.8s5.9-16.4,14-18.8C1345.8,516.6,1346,529.6,1343,541.3z"/>
				</g>
				<g>
					<path class="st5" d="M1160.1,483.8c-2.2,5.9-2.2,12.7,0.7,19.1c6.2,13.5,23.3,20.5,37.6,18.2c14.4-2.3,9.4-8.3,12.8-21.4
						c3.4-13-3-24.1-15.7-31C1180.7,460.8,1165,470.2,1160.1,483.8z"/>
					<path class="st2" d="M1197.1,505.6c-1.1-13.1-11.8-23.1-25.1-22.9c-2.6,0-2.6,4,0,4c10.9-0.1,20.1,8,21.1,18.9
						C1193.3,508.2,1197.3,508.2,1197.1,505.6L1197.1,505.6z"/>
				</g>
				<path class="st8" d="M1032,1073.6l9.3-89.4l-4-14.5l-3.3-12.1l-115.6-55l44.5-135.4c13.2-40.3,45.2-71.7,85.8-84.1l105.3-32.2
					l17.6-23.5c2.8-3.8,6.4-6.9,10.4-9.2c7.5-4.4,16.6-5.2,25-3.2c32,7.6,63.4,13,91.2,5c13.6-3.9,28.8,0.1,36.8,11.8
					c0.6,0.8,1.1,1.7,1.6,2.5l16.8,29.6l35.1,16.2c46.2,10.5,81.2,48.4,88,95.3l43.4,298.2H1032z"/>
				<path class="st9" d="M1145.3,922.9c0,0-34.6,114.7-113.3,150.7l9.3-89.4l-4-14.5L1145.3,922.9z"/>
				<g>
					<path class="st5" d="M1279.4,835.6c2.7,4,7.8,13.2,3.9,19.7c-0.6,1.1-1.5,2.1-2.7,3c0,0-2.8,13-13.8,19.6
						c-45.1,26.8-93.1,11.4-93.1,11.4l-19.9-61l31.6-41.6l33.2-45.9c0,0,11.6-1,12.8,12.5c1.2,13.5-22.9,47.7-22.9,47.7
						c10.6-5.2,34.4-14.1,50.3-12.8c6.5,0.5,9.4,5.5,11.3,16.2c0.1,0.8,0.3,1.7,0.4,2.6c0,0,0.8,0.4,2.1,1.2
						c4.3,2.7,13.3,9.9,8.2,20.5c-0.7,1.5-1.7,3-3,4.7C1277.9,833.5,1278.5,834.3,1279.4,835.6z"/>
					<path class="st6" d="M1247,815.8c8.2-2,16.3-3.9,24.5-5.9c2.5-0.6,1.4-4.5-1.1-3.9c-8.2,2-16.3,3.9-24.5,5.9
						C1243.4,812.6,1244.5,816.5,1247,815.8L1247,815.8z"/>
					<path class="st6" d="M1253,841.4c8.8-1.7,17.7-3.3,26.5-5c2.5-0.5,1.5-4.3-1.1-3.9c-8.8,1.7-17.7,3.3-26.5,5
						C1249.4,838,1250.5,841.9,1253,841.4L1253,841.4z"/>
					<path class="st6" d="M1260.1,864.4c6.8-0.8,13.7-1.7,20.5-2.5c2.5-0.3,2.6-4.3,0-4c-6.8,0.8-13.7,1.7-20.5,2.5
						C1257.5,860.7,1257.5,864.7,1260.1,864.4L1260.1,864.4z"/>
				</g>
				<path class="st8" d="M1182.6,918.9l-37.3,4c0,0-94.6,100-157.3,97.3c-15.8-0.6-29.3-4.6-40.6-10.2c-32-15.6-46.7-53.1-35.6-86.9
					l6.7-20.5c54.2-38.2,125.2-65.2,194.9-82.4l29.4-19.6c5.4-3.6,12.7-1.1,14.7,5l33.5,100.4C1192.8,912,1188.8,918.2,1182.6,918.9
					z"/>
				<g>
					<path class="st9" d="M1153.8,653.9c5.8,4.5,11.7,9,17.5,13.5c2,1.6,4-1.9,2-3.5c-5.8-4.5-11.7-9-17.5-13.5
						C1153.8,648.9,1151.8,652.4,1153.8,653.9L1153.8,653.9z"/>
					<path class="st9" d="M1327.5,675.9c9.8,0.5,19.3-3.3,26-10.4c1.8-1.9-1.1-4.7-2.8-2.8c-6,6.4-14.4,9.8-23.2,9.3
						C1324.9,671.7,1324.9,675.7,1327.5,675.9L1327.5,675.9z"/>
					<path class="st9" d="M1196.7,641.8c-5.5,9.2-7.9,19.8-6.8,30.5c0.3,2.5,4.3,2.6,4,0c-1-10,1.1-19.8,6.3-28.5
						C1201.5,641.6,1198.1,639.6,1196.7,641.8L1196.7,641.8z"/>
					<path class="st9" d="M1216.7,645.1c-3.1,10.7-3.7,21.8-2.1,32.8c0.4,2.5,4.2,1.5,3.9-1.1c-1.5-10.3-0.8-20.7,2.1-30.7
						C1221.3,643.7,1217.4,642.6,1216.7,645.1L1216.7,645.1z"/>
					<path class="st9" d="M1247.9,647.6c-1.3,10.4-0.8,21,1.5,31.2c0.6,2.5,4.4,1.5,3.9-1.1c-2.2-9.9-2.7-20.1-1.4-30.2
						C1252.2,645.1,1248.2,645.1,1247.9,647.6L1247.9,647.6z"/>
					<path class="st9" d="M1279.9,647.8c2.2,10.6,0.7,21.6-4.4,31.1c-1.2,2.3,2.2,4.3,3.4,2c5.6-10.5,7.2-22.6,4.8-34.2
						C1283.2,644.2,1279.4,645.2,1279.9,647.8L1279.9,647.8z"/>
					<path class="st9" d="M1310.5,649.9c-0.2,9.6-3.7,18.9-9.8,26.4c-1.6,2,1.2,4.8,2.8,2.8c6.8-8.3,10.7-18.5,10.9-29.2
						C1314.6,647.4,1310.6,647.4,1310.5,649.9L1310.5,649.9z"/>
					<path class="st9" d="M1113.9,820.9c9.5-9.4,21.5-15.9,34.6-18.6c2.5-0.5,1.4-4.4-1.1-3.9c-13.8,2.9-26.4,9.7-36.4,19.6
						C1109.3,819.8,1112.1,822.7,1113.9,820.9L1113.9,820.9z"/>
					<path class="st9" d="M1154.7,806.7c13.4,28.1,23.5,57.7,30.1,88c0.6,2.5,4.4,1.5,3.9-1.1c-6.7-30.7-17-60.6-30.5-89
						C1157,802.4,1153.6,804.4,1154.7,806.7L1154.7,806.7z"/>
					<path class="st9" d="M1151.9,923.9c10.2-1.9,20.5-3.8,30.7-5.6c2.5-0.5,1.5-4.3-1.1-3.9c-10.2,1.9-20.5,3.8-30.7,5.6
						C1148.3,920.5,1149.4,924.4,1151.9,923.9L1151.9,923.9z"/>
					<path class="st9" d="M1122.2,837.5c8.2-3.5,16.5-7,24.7-10.6c2.4-1,0.3-4.5-2-3.5c-8.2,3.5-16.5,7-24.7,10.6
						C1117.8,835.1,1119.8,838.5,1122.2,837.5L1122.2,837.5z"/>
					<path class="st9" d="M1133.7,857.2c6-2.4,12-4.9,18-7.3c2.3-1,1.3-4.8-1.1-3.9c-6,2.4-12,4.9-18,7.3
						C1130.3,854.3,1131.3,858.2,1133.7,857.2L1133.7,857.2z"/>
					<path class="st9" d="M1148.1,881.4c6.2-2.2,12.4-4.5,18.7-6.7c2.4-0.9,1.4-4.7-1.1-3.9c-6.2,2.2-12.4,4.5-18.7,6.7
						C1144.6,878.4,1145.6,882.2,1148.1,881.4L1148.1,881.4z"/>
					<path class="st9" d="M1153.4,901.7c6.1-5.8,13.5-9.8,21.7-11.6c2.5-0.6,1.4-4.4-1.1-3.9c-8.9,2-16.9,6.4-23.5,12.7
						C1148.8,900.7,1151.6,903.5,1153.4,901.7L1153.4,901.7z"/>
					<path class="st9" d="M995.5,860.3c25.5-13.8,53.2-23.4,81.8-28.6c2.5-0.5,1.5-4.3-1.1-3.9c-28.9,5.2-56.9,15-82.7,29
						C991.2,858.1,993.2,861.5,995.5,860.3L995.5,860.3z"/>
					<path class="st9" d="M1067.5,773c-2.7,19.8-5.4,39.6-8,59.5c-0.3,2.5,3.7,2.5,4,0c2.7-19.8,5.4-39.6,8-59.5
						C1071.9,770.4,1067.9,770.5,1067.5,773L1067.5,773z"/>
					<path class="st9" d="M1426.2,808.8c5,62.5,10,124.9,15,187.4c1.4,17.6,2.8,35.2,4.2,52.8c0.2,2.6,4.2,2.6,4,0
						c-5-62.5-10-124.9-15-187.4c-1.4-17.6-2.8-35.2-4.2-52.8C1430,806.2,1426,806.2,1426.2,808.8L1426.2,808.8z"/>
					<path class="st9" d="M1429.3,797.4c6.4-14.9,9.4-30.9,8.7-47.1c-0.1-2.6-4.1-2.6-4,0c0.7,15.4-2.1,30.9-8.2,45.1
						C1424.8,797.7,1428.3,799.7,1429.3,797.4L1429.3,797.4z"/>
					<path class="st9" d="M1436,789.6c4-4.9,7.9-9.8,11.9-14.7c1.6-2-1.2-4.8-2.8-2.8c-4,4.9-7.9,9.8-11.9,14.7
						C1431.6,788.8,1434.4,791.6,1436,789.6L1436,789.6z"/>
					<path class="st9" d="M1282.1,1013.6c37.6-12,69.8-38.8,89.2-73.1c5.5-9.8,9.9-20.2,13.2-30.9c0.8-2.5-3.1-3.5-3.9-1.1
						c-11.1,36.8-36.8,68.5-69.8,87.9c-9.4,5.5-19.4,10-29.7,13.3C1278.6,1010.6,1279.7,1014.4,1282.1,1013.6L1282.1,1013.6z"/>
					<path class="st9" d="M1285.4,990.4c10.8-10.8,19-23.7,24.4-37.9c0.9-2.4-2.9-3.5-3.9-1.1c-5.1,13.6-13.1,25.9-23.4,36.2
						C1280.8,989.4,1283.6,992.2,1285.4,990.4L1285.4,990.4z"/>
				</g>
				<path class="st6" d="M1191.4,522.6c5.4,13.5,14,25.5,25.1,34.8c2,1.6,4.8-1.2,2.8-2.8c-10.6-8.9-18.9-20.2-24.1-33.1
					C1194.3,519.2,1190.5,520.2,1191.4,522.6L1191.4,522.6z"/>
			</g>
		</g>
		<g>
			<g>
				<rect x="493.2" y="1187.7" class="st1" width="970.7" height="616.6"/>
				<rect x="493.2" y="1187.7" class="st4" width="970.7" height="106.8"/>
				<path class="st2" d="M1466,1806.3H491.2v-620.6H1466V1806.3z M495.2,1802.3H1462v-612.6H495.2V1802.3z"/>
				<path class="st2" d="M1384,1267.8c-15.4,0-28-12.6-28-28s12.6-28,28-28c15.4,0,28,12.6,28,28S1399.5,1267.8,1384,1267.8z
					 M1384,1215.8c-13.2,0-24,10.8-24,24c0,13.2,10.8,24,24,24c13.2,0,24-10.8,24-24C1408.1,1226.6,1397.3,1215.8,1384,1215.8z"/>
			</g>
			<g>
				<rect x="520" y="1510.7" class="st10" width="428" height="294.7"/>
				<path class="st5" d="M702.3,1333.7l182.4,4c-8.2-12-15.8-25.7-22.8-42.2c-8.7-20.5-16.3-45.3-22.2-76.6l-60.4-18.9l-67.2-21.1
					C719,1233.2,710.5,1314.7,702.3,1333.7z"/>
				<path class="st6" d="M778.6,1231.3c0,0,27.9,41,80.7,57.2c-8.7-20.5-13.8-38.3-19.7-69.6l-60.4-18.9L778.6,1231.3z"/>
				<path class="st5" d="M879.1,1183.4c-3,31-26.3,62.3-63,61.7c-15.7-0.3-35.3-4.8-48.1-14.4l-53.3-40.3l-19.2-86.6l82.1-75.8
					l77.1,38.8c0,0,4,62,4,62c0.2,2.6,5.4,7.7,10.6,15.6c4.8,7.2,9.4,16.6,10.1,28.4C879.5,1176.2,879.4,1179.8,879.1,1183.4z"/>
				<path class="st2" d="M819.1,1130.3c0.8,5.1,3,9.6,6.2,13.5c3.5,4.2,7.9,7.4,11.5,11.6c3,3.5,6.6,8.7,3.3,13.1
					c-2.8,3.7-7.9,5.3-12.1,6.4c-2.5,0.7-1.4,4.5,1.1,3.9c9-2.4,20.2-8.7,15-19.7c-2.7-5.9-8-10.2-12.6-14.6
					c-4.5-4.2-7.6-9.1-8.5-15.2C822.5,1126.7,818.7,1127.8,819.1,1130.3L819.1,1130.3z"/>
				<path class="st2" d="M831.3,1190.8c-9.2,1-18.3-2.2-24.6-8.9c-1.8-1.9-4.6,1-2.8,2.8c7,7.4,17.3,11.2,27.5,10.1
					C833.9,1194.5,833.9,1190.5,831.3,1190.8L831.3,1190.8z"/>
				<path class="st2" d="M789,1134.5c0.7,4.6,4.1,7.9,7.4,7.4c3.3-0.5,5.5-4.7,4.7-9.3s-4.1-7.9-7.4-7.4S788.3,1129.9,789,1134.5z"
					/>
				<path class="st2" d="M833.9,1132.3c1.2,4.4,4.7,7.3,7.8,6.5s4.8-5,3.7-9.4s-4.7-7.3-7.8-6.5
					C834.4,1123.7,832.7,1127.9,833.9,1132.3z"/>
				<path class="st2" d="M825.8,1110.5c-0.1,1.7,5.2,3.4,12,3.9c6.8,0.5,11.8,1.3,12.5-2.1c0.7-4-5.2-3.4-12-3.9
					S825.9,1108.9,825.8,1110.5z"/>
				<path class="st2" d="M803.7,1111.2c0.4,1.7-5,4.3-12,5.9s-12.2,3.1-13.4-0.3c-1.4-4.1,5-4.3,12-5.9S803.3,1109.5,803.7,1111.2z"
					/>
				<ellipse class="st7" cx="771.9" cy="1170.7" rx="20.9" ry="20.4"/>
				<path class="st7" d="M879.1,1183.4c-1.6,0.2-3.2,0.1-4.9-0.2c-11.4-1.7-19.2-12-17.5-23.2c1.1-7.3,6.1-13,12.6-15.7
					c4.8,7.2,9.4,16.6,10.1,28.4C879.5,1176.2,879.4,1179.8,879.1,1183.4z"/>
				<path class="st2" d="M717,1155c-5-39,3.7-63.8,35-82.3c79.3,31.5,131,21.2,140.7-52.7c-26.6,10.4-48,12.3-79-5.1
					c-3.4-1.9-86.2-54.2-117.2,33.9c0,0-51.3,23.2-10.7,96.9L717,1155z"/>
				<path class="st10" d="M911.4,1327.7l95.7,36c62.5,23.5,97.3,90.3,80.6,155L1055,1646H468l-4-59l18.9-113.1
					c9.3-55.7,47.3-102.4,100-122.9l69.5-27l134.3-11.1L911.4,1327.7z"/>
				<g>
					<polygon class="st11" points="665.5,1806.1 459.5,1806.1 369.5,1547.4 575.5,1547.4 					"/>
					<polygon class="st12" points="582,1643.8 434.2,1643.8 412.9,1585.5 560.8,1585.5 					"/>
					<polygon class="st12" points="592.7,1676.5 444.9,1676.5 439.6,1662.2 587.5,1662.2 					"/>
					<polygon class="st12" points="602,1704.5 454.2,1704.5 448.9,1690.2 596.8,1690.2 					"/>
					<polygon class="st13" points="611.4,1732.5 463.5,1732.5 458.3,1718.2 606.1,1718.2 					"/>
					<polygon class="st13" points="620.7,1760.5 472.9,1760.5 467.6,1746.2 615.5,1746.2 					"/>
					<polygon class="st13" points="630,1788.5 482.2,1788.5 476.9,1774.2 624.8,1774.2 					"/>
				</g>
				<path class="st11" d="M786.8,1312.8L786.8,1312.8l-40.3,60.5c-34.1-9.2-65.6-25.3-94-49.4l56.8-29.8
					C734.2,1308.5,761,1314.2,786.8,1312.8C786.8,1312.8,786.8,1312.8,786.8,1312.8z"/>
				<path class="st11" d="M911.4,1327.7c-23.3,22.5-52.8,37.4-88.5,44.7l-36.1-59.6v0l0,0c26.2-1.4,51.3-10,72.4-24.2L911.4,1327.7z
					"/>
				<path class="st2" d="M962,1480c-32,25-91,149-91,149s-191,24-231,64l12,48l207-11l107-38l43-133L962,1480z"/>
				<path class="st5" d="M624.3,1690.7c-17.7-2.1-67-19.2-78.2-24.7c-2.6-1.3-4.6-1.1-6.2-0.2c-4.1,2.1-4.5,7.9-1.1,10.8
					c10.7,9.2,29.3,17.4,48.7,25.5c-28.6,0.5-71.8-19.3-77-6.6c-1.2,3,0.3,6.3,3,8.1c17.7,11.9,68.3,19.5,68.3,19.5l-0.8,3.7
					c-28.9,1.8-78.3-10.9-73.5,3.3c9,16.1,71,15.4,71,15.4l0.7,4.6c-22.1,0.7-45.9-0.9-45.5,9.2c0.2,7.9,57.7,12.1,57.7,12.1
					c39.5,20.8,77,3.5,77,3.5l17.5-57.1l-30.1-38.1l-31.7-42.1c0,0-10.8-0.8-11.7,11.8C611.3,1662,624.3,1690.7,624.3,1690.7z"/>
				<path class="st10" d="M1055,1646l-32,89.6c-14.5,40.7-53.9,72.1-97,70.4c-94.9,0.6-185.8-8.1-259.3-31.3
					c4.6-17.6,8.4-37.3,5.8-74.7c70.5-21,143.5-32.4,222.5-38l74.3-214L1055,1646z"/>
				<path class="st2" d="M822.9,1372.4l-3.7-1.2c-15.8-5.2-27.3-19-29.4-35.6l-3-22.8L822.9,1372.4z"/>
				<path class="st2" d="M786.8,1312.8l-5.9,30.2c-2.1,10.9-9.6,20.1-19.9,24.3l-14.5,6L786.8,1312.8z"/>
				<path class="st5" d="M668.9,1158.3c-1.7,14.3,12.5,39.8,45.6,32.2c14.7-3.4,8.8-8.6,10.8-21.3c2-12.6-6.1-22.6-20.2-27.9
					C689.5,1135.4,670.4,1145.6,668.9,1158.3z"/>
				<path class="st2" d="M680.9,1162.5c10-4.8,22.2-0.2,26.3,10.1c1,2.4,4.8,1.3,3.9-1.1c-5.2-12.8-19.7-18.5-32.2-12.5
					C676.5,1160.1,678.6,1163.6,680.9,1162.5L680.9,1162.5z"/>
				<path class="st6" d="M711.4,1192.6c11.4,12.8,24.3,24.2,38.4,34c2.1,1.5,4.1-2,2-3.4c-13.8-9.6-26.5-20.8-37.6-33.4
					C712.5,1187.9,709.7,1190.7,711.4,1192.6L711.4,1192.6z"/>
				<path class="st2" d="M665.5,1777.9c44.3,14.1,90.3,22.5,136.6,26.2c13.3,1.1,26.6,1.8,39.9,2.1c2.6,0.1,2.6-3.9,0-4
					c-46.3-1.3-92.5-6.6-137.5-17.5c-12.8-3.1-25.4-6.7-37.9-10.7C664.1,1773.3,663,1777.2,665.5,1777.9L665.5,1777.9z"/>
				<path class="st2" d="M686.1,1760.6c6.7,2.2,13.3,4.4,20,6.7c2.5,0.8,3.5-3.1,1.1-3.9c-6.7-2.2-13.3-4.4-20-6.7
					C684.8,1755.9,683.7,1759.8,686.1,1760.6L686.1,1760.6z"/>
				<path class="st2" d="M690.7,1731.5c5.3-0.4,10.7-0.8,16-1.1c2.5-0.2,2.6-4.2,0-4c-5.3,0.4-10.7,0.8-16,1.1
					C688.1,1727.7,688.1,1731.7,690.7,1731.5L690.7,1731.5z"/>
				<path class="st2" d="M697.3,1706.8c8.5-0.3,16.9-0.7,25.3-1.1c2.6-0.1,2.6-4.1,0-4c-8.5,0.3-16.9,0.7-25.3,1.1
					C694.8,1702.9,694.7,1706.9,697.3,1706.8L697.3,1706.8z"/>
				<path class="st2" d="M962.9,1464.4c9.4-24.4,22.8-47.2,39.5-67.2c1.6-2-1.2-4.8-2.8-2.8c-17.2,20.6-30.9,43.9-40.6,69
					C958.1,1465.7,962,1466.8,962.9,1464.4L962.9,1464.4z"/>
				<path class="st2" d="M536.5,1414.6c23.9,11.8,43.6,31,56,54.6c1.2,2.3,4.7,0.3,3.5-2c-12.6-24.2-32.9-44-57.4-56.1
					C536.2,1410,534.2,1413.5,536.5,1414.6L536.5,1414.6z"/>
				<path class="st2" d="M600.1,1499.9c2.2,23.6,4.3,47.1,6.5,70.7c0.2,2.5,4.2,2.6,4,0c-2.2-23.6-4.3-47.1-6.5-70.7
					C603.9,1497.4,599.9,1497.4,600.1,1499.9L600.1,1499.9z"/>
			</g>
		</g>
		<g>
			<g>
				<rect x="1587.2" y="959.6" class="st1" width="1041.1" height="652.7"/>
				<rect x="1587.2" y="959.6" class="st4" width="1041.1" height="120.4"/>
				<path class="st2" d="M2630.3,1614.3H1585.2V957.6h1045.1L2630.3,1614.3L2630.3,1614.3z M1589.2,1610.3h1037.1V961.6H1589.2
					V1610.3z"/>
				<path class="st2" d="M2538.1,1049.3c-16.3,0-29.5-13.2-29.5-29.5s13.2-29.5,29.5-29.5s29.5,13.2,29.5,29.5
					S2554.4,1049.3,2538.1,1049.3z M2538.1,994.3c-14.1,0-25.5,11.4-25.5,25.5c0,14,11.4,25.5,25.5,25.5s25.5-11.4,25.5-25.5
					C2563.6,1005.8,2552.2,994.3,2538.1,994.3z"/>
			</g>
			<g>
				<g>
					<path class="st2" d="M2311.5,1205.4l-2.9-2.7c41.2-44.6,57.4-79.4,49.5-106.3c-5.2-17.7-21.2-32.4-48.9-44.9
						c-24.8-11.2-55.6-19.2-85.4-26.9c-7-1.8-14.3-3.7-21.3-5.6l1-3.9c6.9,1.9,14.2,3.8,21.3,5.6c61.4,16,124.8,32.5,137.1,74.5
						C2370.2,1123.6,2353.7,1159.6,2311.5,1205.4z"/>
					<path class="st2" d="M1942.2,1146.2c-10.5-20.5-12.2-41.5-4.9-62.4c6.1-17.3,21.9-44.1,63.3-73.3c24.6-17.4,47-27.6,47.2-27.7
						l1.7,3.7c-0.9,0.4-88,40.4-108.4,98.7c-6.9,19.8-5.3,39.8,4.7,59.2L1942.2,1146.2z"/>
					<path class="st2" d="M1982.7,1159.3c-52.7-44-21.3-114.7,71.3-180c-69.3-68-24-152.8,89-146.3c93.7,5.7,161,79.5,77.5,182
						c118,42.4,159.5,163.7,84.2,184.3L1982.7,1159.3z"/>
				</g>
				<path class="st3" d="M2275.6,1489.5c-2.9,29.6-13.1,87.8-18.6,125.3h-306c-10.5-64.4-29.6-173.5-36.6-248.2
					c-4.1-43.4-5.5-87.1-1.6-128l364.6,5.3c2.5,30.6,3.9,60,4.4,88.1C2282.8,1389.2,2280.3,1441.4,2275.6,1489.5z"/>
				<path class="st10" d="M2272,1518.7c-56-59.3-40-226.7-40-226.7l49.8,40.1C2282.8,1389.2,2279.3,1472.7,2272,1518.7z"/>
				<g>
					<path class="st5" d="M2506.5,1313.1l-0.1,1.1l-21.6,168.8c-8.7,28.3-19.9,51.6-34.4,68.4c-0.1,0.2-0.3,0.4-0.5,0.6
						c-25.5,29.1-65.7,32.5-95.9,15.5c-15.3-8.5-27.9-22.2-34.9-40.5l-56.5-148.3l43.6-63.9l77.8,10.5l11.1,39.5l47-75.3l3.5-5.7
						L2506.5,1313.1z"/>
					<path class="st5" d="M2452.2,1236.8c8.2-17.3,24.3-82.7,25.6-95.9c0.3-3.1,1.7-4.8,3.4-5.8c4.3-2.5,9.8,0.5,10.4,5.1
						c2.2,15-1,36.7-4.6,58.9c16.9-25.8,23.6-76.4,38-73.8c3.4,0.6,5.5,3.9,5.6,7.3c0.7,22.9-21.4,73.3-21.4,73.3l3.9,1.4
						c18.2-25.2,34.9-77.5,45.1-64.9c9.5,17.4-26.6,73.4-26.6,73.4l3.8,3.3c13.3-19.7,25.5-42.2,34.4-36.2c7.1,4.8-22,59.4-22,59.4
						c-3.7,47.9-40.9,72-40.9,72l-61.9-16.8l-17.4-49.2l-20.1-52.9c0,0,5.5-10.3,17.5-3.9
						C2436.9,1197.8,2452.2,1236.8,2452.2,1236.8z"/>
					<path class="st6" d="M2397.8,1361.1c-18.5,25.5-31,55.2-36.4,86.3c-0.4,2.5,3.4,3.6,3.9,1.1c5.3-30.8,17.6-60,35.9-85.3
						C2402.7,1361,2399.3,1359,2397.8,1361.1L2397.8,1361.1z"/>
					<path class="st6" d="M2458.3,1242.7c14.8,3.7,26.5,16.9,27.9,32.2c0.2,2.5,4.2,2.6,4,0c-1.6-17-14.2-31.9-30.9-36
						C2456.9,1238.3,2455.8,1242.1,2458.3,1242.7L2458.3,1242.7z"/>
					<path class="st6" d="M2487.5,1202.9c17.9,0.1,35.2,7,48.4,19.1c1.9,1.7,4.7-1.1,2.8-2.8c-13.9-12.8-32.3-20.1-51.2-20.3
						C2484.9,1198.8,2484.9,1202.8,2487.5,1202.9L2487.5,1202.9z"/>
					<path class="st7" d="M2450.5,1551.4c-0.1,0.2-0.3,0.4-0.5,0.6c-25.5,29.1-65.7,32.5-95.9,15.5c5.6-18.8,25-33.5,48.9-35.2
						C2422.6,1531,2440.2,1538.7,2450.5,1551.4z"/>
				</g>
				<path class="st3" d="M2384,1325.3l-121.3,53.4L2232,1292l-294.7-2.7l-22.3,76.3l-0.3,1.1l-19-2l-106.4-11.3l18.3-60.9
					c48.4-132.4,96-151.2,183.5-170.6l14.7-3.3l71.5-15.9l74.7,1.3l76.7,24.5l20.6,6.6c58.9,18.8,103.8,66.7,118.8,126.7
					L2384,1325.3z"/>
				<path class="st10" d="M1914.3,1366.6l-18.6-2c-1.6-32.6,3.9-74.4,17-126C1908.8,1279.5,1910.2,1323.3,1914.3,1366.6z"/>
				<path class="st5" d="M2228.7,1128.5c-37.3,61.2-117.6,96.5-163.1,92.6c-62.8-5.5-66.1-62.1-59.8-102.5l71.5-15.9l74.7,1.3
					L2228.7,1128.5z"/>
				<path class="st5" d="M2193.3,1152l-168.6,8c7.3-10.5,14.1-22.4,20.3-36.6c7.6-17.8,14.2-39.2,19-66l55.5-17.6l61.8-19.7
					C2175.8,1066.5,2185.4,1135.9,2193.3,1152z"/>
				<path class="st6" d="M2120.7,1066.3c0,0-27.2,41.8-75.7,57c7.6-17.8,14.2-39.2,19-66l55.5-17.6L2120.7,1066.3z"/>
				<path class="st6" d="M2032.7,1158.7c-0.3,0-0.6-0.1-0.8-0.2c-1-0.5-1.4-1.6-1-2.7c12.2-26.9,22.4-58.4,28.7-88.8
					c0.2-1.1,1.3-1.8,2.4-1.6s1.8,1.3,1.6,2.4c-6.3,30.6-16.6,62.4-29,89.6C2034.2,1158.2,2033.4,1158.7,2032.7,1158.7z"/>
				<path class="st5" d="M2212,952.7l-30.7,80.6l-60.6,33c-39,13.7-60.4,7.3-73.1-1.7c-6-4.3-11-9.7-14.2-16
					c-6.3-12.7-8-25.5-6-37.9c2-12.6,7.8-24.8,16.6-36c4.5-5.9,9.9-11.5,16-16.8l-10-46.7l18.7-30.6L2146,868L2212,952.7z"/>
				<path class="st2" d="M2203.3,990.7c-41.6-19.8-71.3-52.7-73.3-100c-33.9-4.5-58.7,10.7-77.3,39.3l-8.7,8.5l-2-38l25.5-33.5
					l89-13.5l64,73.5l9,55L2203.3,990.7z"/>
				<g>
					<path class="st5" d="M2229,1009c-0.5,14-17.5,36.5-47.5,24.5c-13.3-5.3-7-9.6-7-22s9-20.8,23-24
						C2213,984,2229.4,996.6,2229,1009z"/>
					<path class="st2" d="M2192.2,1022.2c-0.9,0-1.7-0.6-1.9-1.5c-1.4-5.7,0.4-11.3,4.9-15.1c5.5-4.6,13.4-5.3,21.3-1.9
						c1,0.4,1.5,1.6,1,2.6s-1.6,1.5-2.6,1c-6.4-2.8-12.9-2.3-17.1,1.3c-3.3,2.8-4.6,7-3.6,11.1c0.3,1.1-0.4,2.2-1.5,2.4
						C2192.6,1022.2,2192.4,1022.2,2192.2,1022.2z"/>
				</g>
				<g>
					<path class="st2" d="M2086.7,961.2c0.9,6.5-6.8,9.7-11.6,11.7c-4.6,2-9.4,4.4-11.8,9.1c-5,10,3.4,19.8,12.1,23.7
						c2.3,1,4.4-2.4,2-3.5c-4.6-2.1-9.1-5.2-10.9-10.2c-1.9-5.5,0.3-10.3,5.1-13.2c4.4-2.6,9.5-3.8,13.6-7c3.7-2.9,5.9-7.1,5.2-11.8
						C2090.2,957.6,2086.3,958.7,2086.7,961.2L2086.7,961.2z"/>
					<path class="st2" d="M2071.5,1022.2c9.7,2.6,19.9,0.3,27.8-6c2-1.6-0.8-4.4-2.8-2.8c-6.7,5.3-15.6,7.1-23.9,4.9
						C2070.1,1017.7,2069,1021.6,2071.5,1022.2L2071.5,1022.2z"/>
					<path class="st2" d="M2119.7,969c-1.4,4.3-5,7-8.1,6.1s-4.4-5.3-3.1-9.6c1.4-4.3,5-7,8.1-6.1S2121,964.7,2119.7,969z"/>
					<path class="st2" d="M2077.9,960.4c-1.7,4-5.4,6.3-8.3,5.1c-2.9-1.2-3.8-5.5-2.1-9.5s5.4-6.3,8.3-5.1
						C2078.7,952.1,2079.6,956.4,2077.9,960.4z"/>
					<path class="st2" d="M2084,939.6c0,1.7-4,3.1-9.1,3.2c-5,0.1-8.9,0.6-9.2-2.8c-0.4-4,4-3.1,9.1-3.2
						C2079.9,936.7,2084,938,2084,939.6z"/>
					<path class="st2" d="M2110.5,944.2c-0.9,1.8,2.5,4.7,7.6,6.5s8.7,3.6,10.9,0.1c2.5-4.2-2.5-4.7-7.6-6.5
						C2116.3,942.5,2111.4,942.5,2110.5,944.2z"/>
					
						<ellipse transform="matrix(0.2298 -0.9732 0.9732 0.2298 666.7874 2846.5466)" class="st7" cx="2131.9" cy="1002" rx="19.8" ry="19.8"/>
					<path class="st7" d="M2055,992.5c0,10.9-8.9,19.8-19.8,19.8c-2.8,0-5.4-0.6-7.8-1.6c2-12.6,7.8-24.8,16.6-36
						C2050.5,978,2055,984.7,2055,992.5z"/>
				</g>
				<g>
					<path class="st10" d="M2002.3,1234.9c10.7,15.3,28,24.3,46.1,27.6c21.2,3.8,42.6-0.5,62.6-7.7c12.6-4.6,24.8-10.2,36.9-15.9
						c2.3-1.1,0.3-4.5-2-3.4c-35.9,16.8-78.6,35.6-117.5,16.5c-9-4.4-16.9-10.8-22.7-19C2004.3,1230.8,2000.8,1232.8,2002.3,1234.9
						L2002.3,1234.9z"/>
					<path class="st10" d="M2300.7,1171.5c-30.4,6.3-56.4,28.5-67.7,57.3c-0.9,2.4,2.9,3.4,3.9,1.1c10.8-27.6,36-48.5,64.9-54.6
						C2304.3,1174.9,2303.2,1171,2300.7,1171.5L2300.7,1171.5z"/>
					<path class="st10" d="M2303.1,1179.1c-14.6,6.7-26.9,17.8-35.1,31.7c-1.3,2.2,2.1,4.2,3.4,2c7.9-13.3,19.6-23.8,33.7-30.3
						C2307.4,1181.5,2305.4,1178,2303.1,1179.1L2303.1,1179.1z"/>
					<path class="st10" d="M2370.2,1317c-16.8,3-33,8.9-47.9,17.2c-2.2,1.2-0.2,4.7,2,3.4c14.6-8.2,30.5-13.8,46.9-16.8
						C2373.8,1320.4,2372.7,1316.6,2370.2,1317L2370.2,1317z"/>
					<path class="st10" d="M1804.2,1342.2c18,2.5,36,5,54.1,7.6c2.5,0.3,3.6-3.5,1.1-3.9c-18-2.5-36-5-54.1-7.6
						C1802.7,1337.9,1801.7,1341.8,1804.2,1342.2L1804.2,1342.2z"/>
					<path class="st10" d="M2014.4,1436.3c23.1,45.9,67.1,79.2,117.6,88.7c14.9,2.8,30.2,3.6,45.4,2.3c2.5-0.2,2.6-4.2,0-4
						c-51.5,4.5-102.8-16.1-136.8-55.1c-9-10.3-16.6-21.7-22.7-33.9C2016.7,1432,2013.2,1434,2014.4,1436.3L2014.4,1436.3z"/>
					<path class="st10" d="M2122.1,1476.8c12.3,15.5,27.6,28.3,45,37.7c2.3,1.2,4.3-2.2,2-3.4c-17.1-9.2-32.1-21.8-44.2-37.1
						C2123.4,1471.9,2120.6,1474.8,2122.1,1476.8L2122.1,1476.8z"/>
					<path class="st10" d="M1976.4,1182.2c2.6,12.1,6.4,25.2,13.9,35.3c1.5,2.1,5,0.1,3.4-2c-7.3-9.9-10.9-22.5-13.5-34.4
						C1979.7,1178.6,1975.9,1179.7,1976.4,1182.2L1976.4,1182.2z"/>
				</g>
				<g>
					<path class="st5" d="M2229,1614.5l-173.5,1.5l-180-1.5c-33.4-1.7-60.8-10.3-80-25.4c-22.6-17.7-34-44.5-31.1-79.9
						c0.3-3.8,0.8-7.7,1.4-11.7l23.4-144.1l125.4,13.4l-28,134.6c95.3,26.7,143.3,40.7,169.6,54.7H2160L2229,1614.5z"/>
					<path class="st6" d="M1915,1365.6l-9.7,46.1c-5.5-12.8-8.7-28.4-9.6-47l19,2L1915,1365.6z"/>
					<path class="st7" d="M1814.2,1554.5c0,13.8-7.2,26.2-18.7,34.6c-22.6-17.7-34-44.5-31.1-79.9
						C1792.3,1510.8,1814.2,1530.4,1814.2,1554.5z"/>
					<path class="st6" d="M2033.2,1572.8c7.7-4.6,15.4-9.2,23-13.9c2.2-1.3,0.2-4.8-2-3.4c-7.7,4.6-15.4,9.2-23,13.9
						C2029,1570.7,2031,1574.1,2033.2,1572.8L2033.2,1572.8z"/>
					<path class="st6" d="M2190.1,1610.9c-12-10-24-20-35.9-30c-2-1.6-4.8,1.2-2.8,2.8c12,10,24,20,35.9,30
						C2189.2,1615.4,2192.1,1612.6,2190.1,1610.9L2190.1,1610.9z"/>
					<path class="st6" d="M2130.1,1599.4c7.1,5.1,14.2,10.2,21.3,15.3c2.1,1.5,4.1-2,2-3.4c-7.1-5.1-14.2-10.2-21.3-15.3
						C2130,1594.4,2128,1597.9,2130.1,1599.4L2130.1,1599.4z"/>
				</g>
				<path class="st6" d="M2145.7,1060.7c13.5-6,25.6-14.6,36.2-24.8c1.9-1.8-1-4.6-2.8-2.8c-10.4,10-22.3,18.3-35.4,24.2
					C2141.3,1058.3,2143.3,1061.8,2145.7,1060.7L2145.7,1060.7z"/>
			</g>
		</g>
		<g>
			<g>
				<path class="st2" d="M2398,958h-4v-9.1h4V958z M2398,925.4h-4V902h4V925.4z M2398,878.5h-4V855h4V878.5z M2398,831.5h-4v-23.5h4
					V831.5z M2398,784.6h-4v-23.5h4V784.6z M2398,737.6h-4v-23.5h4V737.6z M2372.7,716h-23.5v-4h23.5V716z M2325.8,716h-23.5v-4
					h23.5V716z M2278.8,716h-23.5v-4h23.5V716z M2231.9,716h-23.5v-4h23.5V716z M2184.9,716h-23.5v-4h23.5V716z M2138,716h-23.5v-4
					h23.5V716z M2091,716h-23.5v-4h23.5V716z M2044.1,716h-23.5v-4h23.5V716z M1997.1,716h-23.5v-4h23.5V716z M1950.2,716h-23.5v-4
					h23.5V716z M1903.2,716h-23.5v-4h23.5V716z M1856.3,716h-23.5v-4h23.5V716z M1809.4,716h-23.5v-4h23.5V716z M1762.4,716H1739v-4
					h23.5V716z M1715.5,716H1692v-4h23.5V716z"/>
				<g>
					<rect x="1957.3" y="385.3" class="st11" width="536" height="370.7"/>
					<g>
						<rect x="2036.3" y="540.6" class="st3" width="42" height="166.4"/>
						<rect x="2120.3" y="594.3" class="st3" width="42" height="112.7"/>
						<rect x="2204.3" y="561.1" class="st3" width="42" height="145.9"/>
						<rect x="2288.3" y="495.6" class="st3" width="42" height="211.4"/>
						<rect x="2372.3" y="444.2" class="st3" width="42" height="262.8"/>
					</g>
				</g>
			</g>
			<g>
				<path class="st2" d="M492,1358h-23.5v-4H492V1358z M445.1,1358h-23.5v-4h23.5V1358z M408,1348.1h-4v-23.5h4V1348.1z M408,1301.2
					h-4v-23.5h4V1301.2z M408,1254.2h-4v-23.5h4V1254.2z M408,1207.3h-4v-23.5h4V1207.3z M408,1160.3h-4v-23.5h4V1160.3z
					 M408,1113.4h-4v-23.5h4V1113.4z M408,1066.4h-4V1043h4V1066.4z M408,1019.5h-4V996h4V1019.5z M408,972.5h-4v-23.5h4V972.5z
					 M408,925.6h-4v-23.5h4V925.6z M408,878.7h-4v-23.5h4V878.7z M408,831.7h-4v-23.5h4V831.7z M408,784.8h-4v-23.5h4V784.8z
					 M408,737.8h-4v-23.5h4V737.8z M760,710h-8.3v-4h8.3V710z M728.2,710h-23.5v-4h23.5V710z M681.3,710h-23.5v-4h23.5V710z
					 M634.4,710h-23.5v-4h23.5V710z M587.4,710H564v-4h23.5V710z M540.5,710H517v-4h23.5V710z M493.5,710h-23.5v-4h23.5V710z
					 M446.6,710h-23.5v-4h23.5V710z"/>
				<g>
					<rect x="238.5" y="385.3" class="st3" width="369.9" height="477.1"/>
					<g>
						<rect x="282.6" y="492.9" class="st14" width="57" height="57"/>
						<rect x="377.2" y="492.9" class="st11" width="103" height="21.5"/>
						<rect x="377.2" y="528.2" class="st14" width="189.1" height="21.5"/>
						<polygon class="st2" points="306.1,540.6 294.9,522 298.1,520 306.1,533.1 325.8,500 329.2,502 						"/>
						<rect x="282.6" y="602.2" class="st14" width="57" height="57"/>
						<rect x="377.2" y="602.2" class="st11" width="189.1" height="21.5"/>
						<rect x="377.2" y="637.5" class="st14" width="123.8" height="21.5"/>
						<rect x="282.6" y="711.5" class="st14" width="57" height="57"/>
						<rect x="377.2" y="711.5" class="st11" width="177.2" height="21.5"/>
						<rect x="377.2" y="746.8" class="st14" width="102.5" height="21.5"/>
						<polygon class="st2" points="308.5,651.2 297.3,632.6 300.6,630.6 308.5,643.8 328.3,610.6 331.6,612.6 						"/>
						<polygon class="st2" points="308,761.2 296.8,742.6 300.1,740.6 308,753.8 327.8,720.6 331.1,722.6 						"/>
					</g>
				</g>
				<g>
					<g>
						<path class="st1" d="M464.6,1112.8H346.7c-6.9,0-12.5-5.6-12.5-12.5v-68.9c0-6.9,5.6-12.5,12.5-12.5h117.9
							c6.9,0,12.5,5.6,12.5,12.5v68.9C477.1,1107.2,471.5,1112.8,464.6,1112.8z"/>
						<path class="st2" d="M464.6,1114.8H346.7c-8,0-14.5-6.5-14.5-14.5v-68.9c0-8,6.5-14.5,14.5-14.5h117.9c8,0,14.5,6.5,14.5,14.5
							v68.9C479.1,1108.3,472.6,1114.8,464.6,1114.8z M346.7,1020.8c-5.8,0-10.5,4.7-10.5,10.5v68.9c0,5.8,4.7,10.5,10.5,10.5h117.9
							c5.8,0,10.5-4.7,10.5-10.5v-68.9c0-5.8-4.7-10.5-10.5-10.5L346.7,1020.8L346.7,1020.8z"/>
					</g>
					<path class="st2" d="M405.6,1076.1c-2.6,0-5.2-0.9-7.4-2.7l-61.7-48.9l2.2-2.8l61.7,48.9c3.2,2.6,7.2,2.6,10.4,0l61.9-49.2
						l2.2,2.7l-61.9,49.2C410.8,1075.2,408.2,1076.1,405.6,1076.1z"/>
				</g>
			</g>
			<g>
				<g>
					<rect x="1194.4" y="1401.9" class="st15" width="475.5" height="319.4"/>
					<rect x="1244" y="1441.3" class="st16" width="113.3" height="96"/>
					<rect x="1408" y="1441.3" class="st16" width="208.9" height="96"/>
					<rect x="1244" y="1564" class="st16" width="372.5" height="28"/>
					<rect x="1244" y="1606.7" class="st17" width="240" height="28"/>
					<rect x="1244" y="1649.3" class="st17" width="197.3" height="28"/>
				</g>
				<g>
					<path class="st2" d="M1972,1805.9h-13.7v-4h9.7v-9.8h4V1805.9z M1934.8,1805.9h-23.5v-4h23.5V1805.9z M1887.9,1805.9h-23.5v-4
						h23.5V1805.9z M1840.9,1805.9h-23.5v-4h23.5V1805.9z M1794,1805.9h-23.5v-4h23.5V1805.9z M1747,1805.9h-23.5v-4h23.5V1805.9z
						 M1700.1,1805.9h-23.5v-4h23.5V1805.9z M1653.2,1805.9h-23.5v-4h23.5V1805.9z M1606.2,1805.9h-23.5v-4h23.5V1805.9z
						 M1559.3,1805.9h-23.5v-4h23.5V1805.9z M1512.3,1805.9h-23.5v-4h23.5V1805.9z M1465.4,1805.9h-1.4v-4h1.4V1805.9z M1972,1768.7
						h-4v-23.5h4V1768.7z M1972,1721.8h-4v-15.3h12.2v4h-8.2V1721.8z M2496,1710.5h-22.9v-4h18.9v-0.6h4V1710.5z M2449.7,1710.5
						h-23.5v-4h23.5V1710.5z M2402.7,1710.5h-23.5v-4h23.5V1710.5z M2355.8,1710.5h-23.5v-4h23.5V1710.5z M2308.8,1710.5h-23.5v-4
						h23.5V1710.5z M2261.9,1710.5h-23.5v-4h23.5V1710.5z M2214.9,1710.5h-23.5v-4h23.5V1710.5z M2168,1710.5h-23.5v-4h23.5V1710.5z
						 M2121,1710.5h-23.5v-4h23.5V1710.5z M2074.1,1710.5h-23.5v-4h23.5V1710.5z M2027.2,1710.5h-23.5v-4h23.5V1710.5z M2496,1682.4
						h-4V1659h4V1682.4z M2496,1635.5h-4V1612h4V1635.5z"/>
					<circle class="st2" cx="1970" cy="1709.1" r="19.9"/>
				</g>
			</g>
		</g>
	</g>
</g>
</svg>
